<?xml version="1.0" encoding="utf-8"?>
<!-- Generator: Adobe Illustrator 17.1.0, SVG Export Plug-In . SVG Version: 6.00 Build 0)  -->
<!DOCTYPE svg PUBLIC "-//W3C//DTD SVG 1.1//EN" "http://www.w3.org/Graphics/SVG/1.1/DTD/svg11.dtd">
<svg version="1.1" id="Layer_1" xmlns="http://www.w3.org/2000/svg" xmlns:xlink="http://www.w3.org/1999/xlink" x="0px" y="0px"
	 viewBox="0 0 109 109" enable-background="new 0 0 109 109" xml:space="preserve">
<polygon fill="none" points="37.7,58.3 62,58.3 61.2,67.2 53.4,69.3 45.7,67.3 45.3,61.7 38.1,61.7 39,72.8 53.4,76.8 68,72.9 
	70,51.1 44.3,51.1 43.7,44 70.6,44.1 71.2,36.9 35.9,36.9 "/>
<polygon fill="none" points="28,58.6 33.4,60.8 33.4,58.9 30,57.8 30,57.7 33.4,56.6 33.4,54.7 28,56.9 "/>
<polygon fill="none" points="71.5,61.8 73,61.8 76,52.2 74.5,52.2 "/>
<polygon fill="none" points="76.8,56.6 80.1,57.7 80.1,57.8 76.8,58.9 76.8,60.8 82.2,58.6 82.2,56.9 76.8,54.7 "/>
<circle fill="none" cx="30.2" cy="19.6" r="1.3"/>
<circle fill="none" cx="33.6" cy="19.6" r="1.3"/>
<circle fill="none" cx="26.8" cy="19.6" r="1.3"/>
<circle cx="26.8" cy="19.6" r="1.3"/>
<circle cx="30.2" cy="19.6" r="1.3"/>
<circle cx="33.6" cy="19.6" r="1.3"/>
<path fill="#1C75BC" d="M54.5,0c-29.8,0-54,24.2-54,54s24.2,54,54,54s54-24.2,54-54S84.3,0,54.5,0z M86.2,88.7
	c0,1.8-1.5,3.3-3.3,3.3H26.5c-1.8,0-3.3-1.5-3.3-3.3V23.6h63.1V88.7z M86.2,23.2H23.1v-4.7c0-0.2,0-0.5,0.1-0.7
	c0.1-0.4,0.3-0.8,0.5-1.2c0.1-0.2,0.3-0.3,0.4-0.5c0.3-0.3,0.7-0.5,1.1-0.7c0.4-0.2,0.8-0.3,1.3-0.3h56.4c0.2,0,0.5,0,0.7,0.1
	c0.2,0,0.4,0.1,0.6,0.2c0.4,0.2,0.8,0.4,1.1,0.7c0.2,0.2,0.3,0.3,0.4,0.5c0.2,0.4,0.4,0.8,0.5,1.2c0,0.2,0.1,0.4,0.1,0.7V23.2z"/>
<g>
	<g>
		<path fill="#51504F" d="M86.3,89.3c0,1.9-1.5,3.4-3.4,3.4H26.1c-1.9,0-3.4-1.5-3.4-3.4V18.6c0-1.9,1.5-3.4,3.4-3.4h56.9
			c1.9,0,3.4,1.5,3.4,3.4V89.3z"/>
		<path fill="#E2DCDC" d="M22.7,18.6v5.1h63.6v-5.1c0-1.9-1.5-3.4-3.4-3.4H26.1C24.2,15.2,22.7,16.7,22.7,18.6z"/>
	</g>
	<circle fill="#ED1C24" cx="26.5" cy="19.7" r="1.3"/>
	<circle fill="#FFF200" cx="29.9" cy="19.7" r="1.3"/>
	<circle fill="#00A651" cx="33.2" cy="19.7" r="1.3"/>
</g>
<polygon fill="#FFFFFF" points="35.1,36.3 73.9,36.3 73.9,43.6 56.1,50.9 72.3,50.9 70.6,74.4 54.9,79.2 38.8,74.8 37.8,62.6 
	45.9,62.6 46.2,68.2 54.4,70.2 63.2,68.5 64,58.8 37.6,58.9 36.8,51.5 54.4,43.7 36.1,43.7 "/>
<path fill="#FFFFFF" d="M75.4,89h-1.2c-0.8,0-1.3-0.2-1.6-0.6c-0.2-0.3-0.3-0.7-0.3-1.4v-1.6c0-0.3-0.1-0.5-0.3-0.7
	c-0.2-0.1-0.4-0.2-0.7-0.2v-1.2c0.3,0,0.5,0,0.6-0.1c0.2-0.1,0.3-0.4,0.3-0.7V81c0-0.7,0.1-1.1,0.3-1.3c0.3-0.4,0.8-0.6,1.6-0.6h1.2
	v1.1h-0.2c-0.3,0-0.5,0-0.7,0.1c-0.2,0.1-0.3,0.2-0.3,0.4V83c0,0.4-0.2,0.7-0.5,0.9c-0.1,0.1-0.3,0.1-0.5,0.2
	c0.2,0.1,0.4,0.1,0.5,0.2c0.3,0.2,0.5,0.5,0.5,0.9v2.3c0,0.2,0.1,0.3,0.3,0.4c0.1,0,0.3,0.1,0.6,0.1h0.2V89z"/>
<path fill="#FFFFFF" d="M82.2,84.7c-0.3,0-0.5,0-0.6,0.1c-0.2,0.1-0.3,0.4-0.3,0.7v1.6c0,0.7-0.1,1.1-0.3,1.3
	c-0.3,0.4-0.8,0.6-1.6,0.6h-1.2V88h0.2c0.3,0,0.4,0,0.6-0.1c0.2-0.1,0.3-0.2,0.3-0.4v-2.3c0-0.4,0-0.7,0-0.9c0-0.1,0-0.1,0-0.2
	c0-0.1,0-0.1,0-0.2c0-0.2,0-0.5,0-0.9v-2.3c0-0.2-0.1-0.3-0.3-0.4c-0.2-0.1-0.4-0.1-0.7-0.1h-0.2v-1.1h1.2c0.8,0,1.3,0.2,1.6,0.6
	c0.2,0.3,0.3,0.7,0.3,1.4v1.6c0,0.3,0.1,0.6,0.3,0.7c0.2,0.1,0.4,0.2,0.6,0.2V84.7z"/>
</svg>
