<?xml version="1.0" encoding="utf-8"?>
<!-- Generator: Adobe Illustrator 17.1.0, SVG Export Plug-In . SVG Version: 6.00 Build 0)  -->
<!DOCTYPE svg PUBLIC "-//W3C//DTD SVG 1.1//EN" "http://www.w3.org/Graphics/SVG/1.1/DTD/svg11.dtd">
<svg version="1.1" id="Layer_1" xmlns="http://www.w3.org/2000/svg" xmlns:xlink="http://www.w3.org/1999/xlink" x="0px" y="0px"
	 viewBox="0 0 108 108" enable-background="new 0 0 108 108" xml:space="preserve">
<path d="M57.7,46.5"/>
<g>
	<circle fill="none" cx="30.2" cy="20.1" r="1.3"/>
	<circle fill="none" cx="33.6" cy="20.1" r="1.3"/>
	<circle fill="none" cx="26.8" cy="20.1" r="1.3"/>
</g>
<circle cx="26.8" cy="20.1" r="1.3"/>
<circle cx="30.2" cy="20.1" r="1.3"/>
<circle cx="33.6" cy="20.1" r="1.3"/>
<path fill="#F18A21" d="M54,0C24.2,0,0,24.2,0,54s24.2,54,54,54s54-24.2,54-54S83.8,0,54,0z M85.7,88.8c0,1.8-1.5,3.3-3.3,3.3H26
	c-1.8,0-3.3-1.5-3.3-3.3V23.6h63.1V88.8z M85.7,23.3H22.6v-4.7c0-0.2,0-0.5,0.1-0.7c0.1-0.4,0.3-0.8,0.5-1.2
	c0.1-0.2,0.3-0.3,0.4-0.5c0.3-0.3,0.7-0.5,1.1-0.7c0.4-0.2,0.8-0.3,1.3-0.3h56.4c0.2,0,0.5,0,0.7,0.1c0.2,0,0.4,0.1,0.6,0.2
	c0.4,0.2,0.8,0.4,1.1,0.7c0.2,0.2,0.3,0.3,0.4,0.5c0.2,0.4,0.4,0.8,0.5,1.2c0,0.2,0.1,0.4,0.1,0.7V23.3z"/>
<g>
	<g>
		<path fill="#51504F" d="M86.3,89.2c0,1.9-1.5,3.4-3.4,3.4H26.1c-1.9,0-3.4-1.5-3.4-3.4V18.4c0-1.9,1.5-3.4,3.4-3.4h56.9
			c1.9,0,3.4,1.5,3.4,3.4V89.2z"/>
		<path fill="#E2DCDC" d="M22.7,18.4v5.1h63.6v-5.1c0-1.9-1.5-3.4-3.4-3.4H26.1C24.2,15,22.7,16.5,22.7,18.4z"/>
	</g>
	<circle fill="#ED1C24" cx="26.5" cy="19.5" r="1.3"/>
	<circle fill="#FFF200" cx="29.9" cy="19.5" r="1.3"/>
	<circle fill="#00A651" cx="33.2" cy="19.5" r="1.3"/>
</g>
<g>
	<path fill="#FFFFFF" d="M32.1,35.2c6-0.1,23.2,0.6,25,20.9c-1.1,17.8-12.5,21.9-25,21.9c0-3,0-9.4,0-9.4s15.5,2.3,15.7-12
		c-0.4-13.4-15.7-12-15.7-12S32.1,33.2,32.1,35.2z"/>
	<path fill="#FFFFFF" d="M74.7,56.5c2.6-2.7,2.1-9.1,2.2-10.7c0.1-3.8-5.4-10-10.2-10.5c0,0,0,0,0,0H49.4c-0.1,0-0.1,0.1,0,0.2
		c4,2.5,8,6.6,8.4,8.9c0,0.1,0.1,0.2,0.2,0.2c0.9,0,4.8,0,6.6,0c0.8,0,1.5,0.4,1.9,1.1c0.9,1.5,0.9,4.2-0.5,5.4
		c-0.4,0.4-1,0.5-1.5,0.5H61c-0.1,0-0.2,0.1-0.2,0.2l0.1,5c0,0,0,0,0,0c0,0,0,0,0,0l-0.1,4.5c0,0.1,0.1,0.2,0.2,0.2h3.4
		c0.5,0,1.1,0.2,1.5,0.5c1.4,1.2,1.4,3.9,0.5,5.4c-0.4,0.7-1.2,1.1-1.9,1.1c-1.8,0-5.7,0-6.6,0c-0.1,0-0.2,0.1-0.2,0.2
		c-0.4,2.3-4.3,6.3-8.4,8.9c-0.1,0,0,0.2,0,0.2h17.3c0,0,0,0,0,0c4.8-0.4,10.2-6.6,10.2-10.5C76.9,65.7,77.4,59.2,74.7,56.5z"/>
</g>
</svg>
