<?xml version="1.0" encoding="utf-8"?>
<!-- Generator: Adobe Illustrator 17.1.0, SVG Export Plug-In . SVG Version: 6.00 Build 0)  -->
<!DOCTYPE svg PUBLIC "-//W3C//DTD SVG 1.1//EN" "http://www.w3.org/Graphics/SVG/1.1/DTD/svg11.dtd">
<svg version="1.1" id="Layer_1" xmlns="http://www.w3.org/2000/svg" xmlns:xlink="http://www.w3.org/1999/xlink" x="0px" y="0px"
	 viewBox="0 0 109 109" enable-background="new 0 0 109 109" xml:space="preserve">
<g>
	<circle fill="none" cx="30.2" cy="20.1" r="1.3"/>
	<circle fill="none" cx="33.6" cy="20.1" r="1.3"/>
	<circle fill="none" cx="26.8" cy="20.1" r="1.3"/>
</g>
<circle cx="26.8" cy="20.1" r="1.3"/>
<circle cx="30.2" cy="20.1" r="1.3"/>
<circle cx="33.6" cy="20.1" r="1.3"/>
<g>
	<g>
		<path fill="#51504F" d="M86.3,89.9c0,1.9-1.5,3.4-3.4,3.4H26.1c-1.9,0-3.4-1.5-3.4-3.4V19.1c0-1.9,1.5-3.4,3.4-3.4h56.9
			c1.9,0,3.4,1.5,3.4,3.4V89.9z"/>
		<path fill="#E2DCDC" d="M22.7,19.1v5.1h63.6v-5.1c0-1.9-1.5-3.4-3.4-3.4H26.1C24.2,15.7,22.7,17.2,22.7,19.1z"/>
	</g>
	<circle fill="#ED1C24" cx="26.5" cy="20.2" r="1.3"/>
	<circle fill="#FFF200" cx="29.9" cy="20.2" r="1.3"/>
	<circle fill="#00A651" cx="33.2" cy="20.2" r="1.3"/>
</g>
<rect x="27.8" y="30.7" fill="#FFFFFF" width="53" height="1.3"/>
<rect x="27.8" y="34.7" fill="#FFFFFF" width="53" height="1.3"/>
<rect x="27.8" y="38.7" fill="#BE1E2D" width="27.4" height="1.3"/>
<rect x="27.8" y="42.7" fill="#00AEEF" width="36" height="1.3"/>
<rect x="27.8" y="50.7" fill="#00A651" width="47" height="1.3"/>
<rect x="27.8" y="54.7" fill="#FBB040" width="41.7" height="1.3"/>
<rect x="27.8" y="58.7" fill="#00A651" width="21.5" height="1.3"/>
<rect x="27.8" y="62.7" fill="#00A651" width="28.3" height="1.3"/>
<rect x="27.8" y="71.7" fill="#00AEEF" width="41.9" height="1.3"/>
<rect x="27.8" y="75.7" fill="#00AEEF" width="36" height="1.3"/>
<rect x="27.8" y="79.7" fill="#FFFFFF" width="32.2" height="1.3"/>
<rect x="27.8" y="83.7" fill="#FFFFFF" width="48" height="1.3"/>
</svg>
