<?xml version="1.0" encoding="utf-8"?>
<!-- Generator: Adobe Illustrator 17.1.0, SVG Export Plug-In . SVG Version: 6.00 Build 0)  -->
<!DOCTYPE svg PUBLIC "-//W3C//DTD SVG 1.1//EN" "http://www.w3.org/Graphics/SVG/1.1/DTD/svg11.dtd">
<svg version="1.1" id="Layer_1" xmlns="http://www.w3.org/2000/svg" xmlns:xlink="http://www.w3.org/1999/xlink" x="0px" y="0px"
	 viewBox="0 0 109 109" enable-background="new 0 0 109 109" xml:space="preserve">
<g>
	<polygon fill="none" points="37.7,58.8 62,58.8 61.2,67.7 53.4,69.9 45.7,67.9 45.3,62.2 38.1,62.2 39,73.3 53.4,77.3 68,73.4 
		70,51.6 44.3,51.6 43.7,44.6 70.6,44.6 71.2,37.5 35.9,37.5 	"/>
	<polygon fill="none" points="71.5,62.4 73,62.4 76,52.7 74.5,52.7 	"/>
	<polygon fill="none" points="76.8,57.1 80.1,58.3 80.1,58.3 76.8,59.4 76.8,61.3 82.2,59.1 82.2,57.5 76.8,55.3 	"/>
	<polygon fill="none" points="28,59.1 33.4,61.3 33.4,59.4 30,58.3 30,58.3 33.4,57.1 33.4,55.3 28,57.5 	"/>
</g>
<g>
	<circle fill="none" cx="30.2" cy="20.1" r="1.3"/>
	<circle fill="none" cx="33.6" cy="20.1" r="1.3"/>
	<circle fill="none" cx="26.8" cy="20.1" r="1.3"/>
</g>
<circle cx="26.8" cy="20.1" r="1.3"/>
<circle cx="30.2" cy="20.1" r="1.3"/>
<circle cx="33.6" cy="20.1" r="1.3"/>
<path fill="#F15A29" d="M54.5,0.5c-29.8,0-54,24.2-54,54s24.2,54,54,54s54-24.2,54-54S84.3,0.5,54.5,0.5z M86.2,89.3
	c0,1.8-1.5,3.3-3.3,3.3H26.5c-1.8,0-3.3-1.5-3.3-3.3V24.1h63.1V89.3z M86.2,23.8H23.1V19c0-0.2,0-0.5,0.1-0.7
	c0.1-0.4,0.3-0.8,0.5-1.2c0.1-0.2,0.3-0.3,0.4-0.5c0.3-0.3,0.7-0.5,1.1-0.7s0.8-0.3,1.3-0.3h56.4c0.2,0,0.5,0,0.7,0.1
	c0.2,0,0.4,0.1,0.6,0.2c0.4,0.2,0.8,0.4,1.1,0.7c0.2,0.2,0.3,0.3,0.4,0.5c0.2,0.4,0.4,0.8,0.5,1.2c0,0.2,0.1,0.4,0.1,0.7V23.8z"/>
<g>
	<g>
		<path fill="#51504F" d="M86.3,89.9c0,1.9-1.5,3.4-3.4,3.4H26.1c-1.9,0-3.4-1.5-3.4-3.4V19.1c0-1.9,1.5-3.4,3.4-3.4h56.9
			c1.9,0,3.4,1.5,3.4,3.4V89.9z"/>
		<path fill="#E2DCDC" d="M22.7,19.1v5.1h63.6v-5.1c0-1.9-1.5-3.4-3.4-3.4H26.1C24.2,15.7,22.7,17.2,22.7,19.1z"/>
	</g>
	<circle fill="#ED1C24" cx="26.5" cy="20.2" r="1.3"/>
	<circle fill="#FFF200" cx="29.9" cy="20.2" r="1.3"/>
	<circle fill="#00A651" cx="33.2" cy="20.2" r="1.3"/>
</g>
<polygon fill="#FFFFFF" points="62,58.8 61.2,67.7 53.4,69.9 45.7,67.9 45.3,62.2 38.1,62.2 39,73.3 53.4,77.3 68,73.4 70,51.6 
	44.3,51.6 43.7,44.6 70.6,44.6 71.2,37.5 35.9,37.5 37.7,58.8 "/>
<polygon fill="#FFFFFF" points="76,52.7 74.5,52.7 71.5,62.4 73,62.4 "/>
<polygon fill="#FFFFFF" points="82.2,57.5 76.8,55.3 76.8,57.1 80.1,58.3 80.1,58.3 76.8,59.4 76.8,61.3 82.2,59.1 "/>
<polygon fill="#FFFFFF" points="33.4,59.4 30,58.3 30,58.3 33.4,57.1 33.4,55.3 28,57.5 28,59.1 33.4,61.3 "/>
</svg>
