<?xml version="1.0" encoding="utf-8"?>
<!-- Generator: Adobe Illustrator 17.1.0, SVG Export Plug-In . SVG Version: 6.00 Build 0)  -->
<!DOCTYPE svg PUBLIC "-//W3C//DTD SVG 1.1//EN" "http://www.w3.org/Graphics/SVG/1.1/DTD/svg11.dtd">
<svg version="1.1" id="Layer_1" xmlns="http://www.w3.org/2000/svg" xmlns:xlink="http://www.w3.org/1999/xlink" x="0px" y="0px"
	 viewBox="0 0 145 145" enable-background="new 0 0 145 145" xml:space="preserve">
<g>
	<path fill="#FBFBFB" d="M144,1v143H1V1H144 M145,0H0v145h145V0L145,0z"/>
</g>
<g>
	<g>
		<path fill="#FBFBFB" d="M60.9,105.6H47.7V39.1h13.2V105.6z"/>
	</g>
	<g>
		<path fill="#FBFBFB" d="M97.3,106.4H84.1c-5.4,0-8.9-1.3-10.6-3.8c-1.2-1.8-1.8-4.8-1.8-9.2V82.4c0-2.2-0.6-3.7-1.9-4.5
			c-1.3-0.8-2.8-1.2-4.6-1.2v-8.4c1.8,0,3.2-0.3,4.2-1c1.5-1,2.3-2.5,2.3-4.8v-11c0-4.5,0.6-7.5,1.7-9.2c1.8-2.6,5.4-3.9,10.7-3.9
			h13.2v7.3h-1.4c-1.7,0-8,0.2-9.2,0.6c-1.2,0.4-1.9,1.3-1.9,2.6V65c0,2.6-1.1,4.6-3.2,6.1c-0.7,0.4-1.8,0.9-3.2,1.4
			c1.5,0.5,2.5,1,3.2,1.4c2.2,1.5,3.2,3.5,3.2,6.1v15.8c0,1.3,0.7,2.2,2.2,2.7c1,0.3,7.1,0.5,8.9,0.5h1.4V106.4z"/>
	</g>
</g>
</svg>
