<?xml version="1.0" encoding="utf-8"?>
<!-- Generator: Adobe Illustrator 17.1.0, SVG Export Plug-In . SVG Version: 6.00 Build 0)  -->
<!DOCTYPE svg PUBLIC "-//W3C//DTD SVG 1.1//EN" "http://www.w3.org/Graphics/SVG/1.1/DTD/svg11.dtd">
<svg version="1.1" id="Layer_1" xmlns="http://www.w3.org/2000/svg" xmlns:xlink="http://www.w3.org/1999/xlink" x="0px" y="0px"
	 viewBox="0 0 108 108" enable-background="new 0 0 108 108" xml:space="preserve">
<path d="M57.7,46.5"/>
<g>
	<circle fill="none" cx="30.2" cy="20.1" r="1.3"/>
	<circle fill="none" cx="33.6" cy="20.1" r="1.3"/>
	<circle fill="none" cx="26.8" cy="20.1" r="1.3"/>
</g>
<circle cx="26.8" cy="20.1" r="1.3"/>
<circle cx="30.2" cy="20.1" r="1.3"/>
<circle cx="33.6" cy="20.1" r="1.3"/>
<path fill="#337EC1" d="M54,0C24.2,0,0,24.2,0,54s24.2,54,54,54s54-24.2,54-54S83.8,0,54,0z M85.7,88.8c0,1.8-1.5,3.3-3.3,3.3H26
	c-1.8,0-3.3-1.5-3.3-3.3V23.6h63.1V88.8z M85.7,23.3H22.6v-4.7c0-0.2,0-0.5,0.1-0.7c0.1-0.4,0.3-0.8,0.5-1.2
	c0.1-0.2,0.3-0.3,0.4-0.5c0.3-0.3,0.7-0.5,1.1-0.7c0.4-0.2,0.8-0.3,1.3-0.3h56.4c0.2,0,0.5,0,0.7,0.1c0.2,0,0.4,0.1,0.6,0.2
	c0.4,0.2,0.8,0.4,1.1,0.7c0.2,0.2,0.3,0.3,0.4,0.5c0.2,0.4,0.4,0.8,0.5,1.2c0,0.2,0.1,0.4,0.1,0.7V23.3z"/>
<g>
	<g>
		<path fill="#51504F" d="M86.3,89.2c0,1.9-1.5,3.4-3.4,3.4H26.1c-1.9,0-3.4-1.5-3.4-3.4V18.4c0-1.9,1.5-3.4,3.4-3.4h56.9
			c1.9,0,3.4,1.5,3.4,3.4V89.2z"/>
		<path fill="#E2DCDC" d="M22.7,18.4v5.1h63.6v-5.1c0-1.9-1.5-3.4-3.4-3.4H26.1C24.2,15,22.7,16.5,22.7,18.4z"/>
	</g>
	<circle fill="#ED1C24" cx="26.5" cy="19.5" r="1.3"/>
	<circle fill="#FFF200" cx="29.9" cy="19.5" r="1.3"/>
	<circle fill="#00A651" cx="33.2" cy="19.5" r="1.3"/>
</g>
<g>
	<g>
		<path fill="#FFFFFF" d="M35.6,54.5c0-0.1,0-0.2,0.1-0.4c0.1-1.3,0.3-2.6,0.8-3.9c0.4-1.1,0.9-2.1,1.6-3.1c0.3-0.4,0.5-0.7,0.8-1.1
			c0.6-0.7,1.2-1.5,1.8-2.2c0,0,0.1-0.1,0.1-0.1c0,0,0,0.1-0.1,0.1c-0.7,1.3-1.1,2.7-1.3,4.2c-0.2,1.1-0.2,2.2-0.2,3.3
			c0.2,3.4,1.2,6.5,3.1,9.4c1.6,2.5,3.6,4.5,5.9,6.2c2.1,1.5,4.3,2.5,6.8,3.3c0.6,0.2,1.3,0.3,2,0.4c0.7,0.1,1.5,0.2,2.2,0.3
			c0.9,0.1,1.7,0.1,2.6,0c0.6,0,1.2-0.1,1.7-0.2c2.9-0.4,5.5-1.4,7.8-3.2c0.8-0.6,1.5-1.3,2.1-2.1c0,0,0.1-0.1,0.1-0.1
			c0,0.1-0.1,0.1-0.1,0.2c-0.5,1.2-1.2,2.3-2.1,3.4c-1.9,2.5-4.3,4.3-7.3,5.5c-1.2,0.5-2.4,0.8-3.7,1c-0.7,0.1-1.5,0.2-2.2,0.2
			c0,0-0.1,0-0.1,0c-0.7,0-1.5,0-2.2,0c0,0-0.1,0-0.1,0c-0.1,0-0.2,0-0.3,0c-0.6-0.1-1.3-0.1-1.9-0.2c-0.7-0.1-1.4-0.2-2-0.4
			c-3.5-1.1-6.5-2.8-9.1-5.3C40.4,68,39,66.1,37.9,64c-1.3-2.4-2.1-5-2.2-7.8c0-0.1,0-0.2-0.1-0.3C35.6,55.4,35.6,55,35.6,54.5z"/>
		<path fill="#FFFFFF" d="M74.4,55.6c0,0.1,0,0.1-0.1,0.2C73.9,57,73.3,58,72.5,59c-1.7,2.1-3.9,3.5-6.6,4.1
			c-0.9,0.2-1.7,0.3-2.6,0.4c-0.9,0.1-1.9,0.1-2.8,0c-0.6-0.1-1.2-0.1-1.8-0.2c-0.5-0.1-0.9-0.3-1.4-0.4c-2.5-0.9-4.7-2.4-6.5-4.3
			c-0.8-0.7-1.3-1.6-1.9-2.5c-0.6-0.9-1-1.8-1.3-2.8c-0.3-0.9-0.5-1.8-0.6-2.7c-0.1-0.8-0.1-1.5,0-2.3c0.2-2,0.8-3.8,1.9-5.4
			c0.6-0.8,1.1-1.6,1.7-2.3c0-0.1,0.1-0.1,0.1-0.2c0,0,0,0.1-0.1,0.1c-0.6,1.1-1,2.2-1.1,3.4c-0.1,0.9-0.2,1.8-0.1,2.7
			c0.1,1.7,0.6,3.2,1.3,4.7c0.9,1.9,2.1,3.5,3.7,4.9c2,1.8,4.2,3,6.7,3.6c0.7,0.2,1.5,0.3,2.3,0.4c0.8,0.1,1.5,0.1,2.3,0.1
			c2.5-0.2,4.8-1,6.8-2.5c0.7-0.6,1.3-1.2,1.8-1.9C74.3,55.7,74.3,55.7,74.4,55.6C74.4,55.6,74.4,55.6,74.4,55.6z"/>
		<path fill="#FFFFFF" d="M58.8,38.4c0,0,0,0.1-0.1,0.1c-0.5,1-0.7,2-0.7,3.1c0,1.4,0.4,2.7,1.1,3.9c1.4,2.5,3.5,4.2,6.3,4.9
			c1.1,0.3,2.1,0.4,3.2,0.4c0.8,0,1.5-0.2,2.2-0.4c0.9-0.4,1.7-0.9,2.4-1.7c0,0,0.1-0.1,0.1-0.1c0,0,0,0,0,0.1
			c-0.4,0.8-0.9,1.5-1.5,2.1c-1.1,1.1-2.4,1.8-3.9,2.1C67,53,66.1,53,65.1,52.9c-0.4,0-0.8-0.1-1.2-0.2c-0.6-0.1-1.1-0.3-1.6-0.6
			c-2.1-0.9-3.7-2.4-4.8-4.4c-0.5-0.9-0.8-1.8-1-2.8c-0.3-2,0.1-3.8,1.3-5.4C58.1,39.2,58.4,38.9,58.8,38.4
			C58.7,38.5,58.7,38.4,58.8,38.4C58.7,38.4,58.7,38.4,58.8,38.4z"/>
	</g>
	<g>
		<path fill="#FFFFFF" d="M30.3,35c0-0.3-0.1-0.6-0.3-0.8c-0.2-0.2-0.5-0.4-1-0.6c-0.9-0.3-1.6-0.7-2.1-1.1s-0.7-1-0.7-1.8
			c0-0.7,0.2-1.3,0.7-1.7s1.1-0.7,1.8-0.8v-1.4h1v1.4c0.7,0.1,1.3,0.4,1.8,0.9c0.4,0.5,0.6,1.2,0.6,2l0,0h-1.8
			c0-0.5-0.1-0.9-0.3-1.2c-0.2-0.3-0.5-0.4-0.8-0.4c-0.4,0-0.6,0.1-0.8,0.3C28.1,30,28,30.3,28,30.6c0,0.3,0.1,0.6,0.3,0.8
			s0.5,0.4,1,0.6c0.9,0.4,1.6,0.8,2.1,1.2c0.5,0.4,0.7,1,0.7,1.8c0,0.7-0.2,1.3-0.7,1.8c-0.5,0.4-1.1,0.7-1.8,0.8v1.3h-1v-1.3
			c-0.8-0.1-1.4-0.4-2-0.8s-0.8-1.2-0.7-2.1l0,0h1.8c0,0.6,0.1,1,0.4,1.2c0.3,0.2,0.6,0.4,1,0.4c0.4,0,0.7-0.1,0.9-0.3
			S30.3,35.3,30.3,35z"/>
		<path fill="#FFFFFF" d="M33.5,33.7c0-1.7,0.3-3.1,1-4.2s1.4-1.9,2.2-2.2h0l0.3,0.9c-0.6,0.4-1,1.1-1.4,2c-0.4,0.9-0.6,2.1-0.6,3.5
			v0.2c0,1.4,0.2,2.6,0.6,3.5c0.4,0.9,0.8,1.6,1.4,2l-0.3,0.9h0c-0.8-0.3-1.5-1.1-2.2-2.2s-1-2.6-1-4.2V33.7z"/>
	</g>
	<g>
		<path fill="#FFFFFF" d="M82.1,80.8c0,1.6-0.3,3-1,4.2s-1.4,1.9-2.2,2.3h0l-0.3-0.9c0.5-0.4,1-1.1,1.4-2s0.6-2.1,0.6-3.5v-0.2
			c0-1.4-0.2-2.6-0.6-3.5c-0.4-0.9-0.8-1.6-1.4-2l0.3-0.9h0c0.8,0.3,1.6,1.1,2.2,2.3c0.7,1.2,1,2.6,1,4.2V80.8z"/>
	</g>
</g>
</svg>
