<?xml version="1.0" encoding="utf-8"?>
<!-- Generator: Adobe Illustrator 17.1.0, SVG Export Plug-In . SVG Version: 6.00 Build 0)  -->
<!DOCTYPE svg PUBLIC "-//W3C//DTD SVG 1.1//EN" "http://www.w3.org/Graphics/SVG/1.1/DTD/svg11.dtd">
<svg version="1.1" id="Layer_1" xmlns="http://www.w3.org/2000/svg" xmlns:xlink="http://www.w3.org/1999/xlink" x="0px" y="0px"
	 viewBox="0 0 109 109" enable-background="new 0 0 109 109" xml:space="preserve">
<g>
	<circle fill="none" cx="30.2" cy="20.1" r="1.3"/>
	<circle fill="none" cx="33.6" cy="20.1" r="1.3"/>
	<circle fill="none" cx="26.8" cy="20.1" r="1.3"/>
</g>
<circle cx="26.8" cy="20.1" r="1.3"/>
<circle cx="30.2" cy="20.1" r="1.3"/>
<circle cx="33.6" cy="20.1" r="1.3"/>
<path fill="#F7941E" d="M54.5,0.5c-29.8,0-54,24.2-54,54s24.2,54,54,54s54-24.2,54-54S84.3,0.5,54.5,0.5z M86.2,89.3
	c0,1.8-1.5,3.3-3.3,3.3H26.5c-1.8,0-3.3-1.5-3.3-3.3V24.1h63.1V89.3z M86.2,23.8H23.1V19c0-0.2,0-0.5,0.1-0.7
	c0.1-0.4,0.3-0.8,0.5-1.2c0.1-0.2,0.3-0.3,0.4-0.5c0.3-0.3,0.7-0.5,1.1-0.7c0.4-0.2,0.8-0.3,1.3-0.3h56.4c0.2,0,0.5,0,0.7,0.1
	c0.2,0,0.4,0.1,0.6,0.2c0.4,0.2,0.8,0.4,1.1,0.7c0.2,0.2,0.3,0.3,0.4,0.5c0.2,0.4,0.4,0.8,0.5,1.2c0,0.2,0.1,0.4,0.1,0.7V23.8z"/>
<g>
	<g>
		<path fill="#51504F" d="M86.3,89.2c0,1.9-1.5,3.4-3.4,3.4H26.1c-1.9,0-3.4-1.5-3.4-3.4V18.4c0-1.9,1.5-3.4,3.4-3.4h56.9
			c1.9,0,3.4,1.5,3.4,3.4V89.2z"/>
		<path fill="#E2DCDC" d="M22.7,18.4v5.1h63.6v-5.1c0-1.9-1.5-3.4-3.4-3.4H26.1C24.2,15,22.7,16.5,22.7,18.4z"/>
	</g>
	<circle fill="#ED1C24" cx="26.5" cy="19.5" r="1.3"/>
	<circle fill="#FFF200" cx="29.9" cy="19.5" r="1.3"/>
	<circle fill="#00A651" cx="33.2" cy="19.5" r="1.3"/>
</g>
<g>
	<polygon fill="#FFFFFF" points="45.3,38.6 45.3,68.7 34.2,65.8 34.2,72.7 51,77.3 51,38.6 	"/>
	<polygon fill="#FFFFFF" points="55.6,38.6 55.6,63.9 66.9,61.9 66.9,67.4 55.6,70.4 55.6,77.3 71.5,73.3 72.7,54.6 61.3,55.6 
		61.3,45.5 73.5,45.4 74,38.6 	"/>
</g>
<g>
	<path fill="#FFFFFF" d="M30.3,62.7h-1.4c-0.9,0-1.5-0.2-1.8-0.6c-0.2-0.3-0.3-0.8-0.3-1.6v-1.8c0-0.4-0.1-0.6-0.3-0.8
		c-0.2-0.1-0.5-0.2-0.8-0.2v-1.4c0.3,0,0.5-0.1,0.7-0.2c0.3-0.2,0.4-0.4,0.4-0.8v-1.8c0-0.7,0.1-1.3,0.3-1.5
		c0.3-0.4,0.9-0.7,1.8-0.7h1.4v1.2H30c-0.3,0-0.5,0-0.7,0.1S29,52.9,29,53.1v2.7c0,0.4-0.2,0.8-0.5,1c-0.1,0.1-0.3,0.2-0.5,0.2
		c0.2,0.1,0.4,0.2,0.5,0.2c0.4,0.2,0.5,0.6,0.5,1V61c0,0.2,0.1,0.4,0.4,0.5c0.2,0.1,0.4,0.1,0.7,0.1h0.2V62.7z"/>
	<path fill="#FFFFFF" d="M83.6,57.7c-0.3,0-0.5,0.1-0.7,0.2c-0.3,0.2-0.4,0.4-0.4,0.8v1.8c0,0.7-0.1,1.3-0.3,1.5
		c-0.3,0.4-0.9,0.7-1.8,0.7H79v-1.2h0.2c0.3,0,0.5,0,0.7-0.1c0.3-0.1,0.4-0.2,0.4-0.5v-2.7c0-0.4,0-0.8,0-1c0-0.1,0-0.2,0-0.2
		c0-0.1,0-0.1,0-0.2c0-0.2,0-0.6,0-1v-2.7c0-0.2-0.1-0.4-0.3-0.4c-0.2-0.1-0.5-0.1-0.8-0.1H79v-1.2h1.4c0.9,0,1.5,0.2,1.8,0.6
		c0.2,0.3,0.3,0.8,0.3,1.6v1.8c0,0.4,0.1,0.6,0.4,0.8c0.2,0.1,0.4,0.2,0.7,0.2V57.7z"/>
</g>
</svg>
