<?xml version="1.0" encoding="utf-8"?>
<!-- Generator: Adobe Illustrator 17.1.0, SVG Export Plug-In . SVG Version: 6.00 Build 0)  -->
<!DOCTYPE svg PUBLIC "-//W3C//DTD SVG 1.1//EN" "http://www.w3.org/Graphics/SVG/1.1/DTD/svg11.dtd">
<svg version="1.1" id="Layer_1" xmlns="http://www.w3.org/2000/svg" xmlns:xlink="http://www.w3.org/1999/xlink" x="0px" y="0px"
	 viewBox="0 0 109 109" enable-background="new 0 0 109 109" xml:space="preserve">
<path fill="#005B85" d="M54.5,0.5c-29.8,0-54,24.2-54,54s24.2,54,54,54c29.8,0,54-24.2,54-54S84.3,0.5,54.5,0.5z M31,83.5h-2.7v-4
	l0.3-6l-0.1,0l-3.6,10h-1.8l-3.6-10l-0.1,0l0.3,5.9v4H17V70h3.5l3.4,10H24l3.5-10H31V83.5z M37.9,85c-0.3,0.7-0.7,1.3-1.2,1.8
	c-0.5,0.5-1.2,0.7-2.2,0.7c-0.2,0-0.4,0-0.6-0.1c-0.2,0-0.4-0.1-0.7-0.2l0.3-2c0.1,0,0.2,0,0.3,0c0.1,0,0.2,0,0.2,0
	c0.4,0,0.8-0.1,1-0.3c0.2-0.2,0.4-0.5,0.6-0.8l0.3-0.8l-3.6-10h2.9l1.7,5.8l0.1,0.6h0.1l1.9-6.4h2.9L37.9,85z M56.6,82.7
	c-0.9,0.7-2.1,1-3.6,1c-1.5,0-2.8-0.4-3.9-1.1s-1.6-1.8-1.6-3.2l0-0.1h2.6c0,0.8,0.2,1.4,0.7,1.8c0.5,0.4,1.2,0.6,2.1,0.6
	c0.7,0,1.3-0.2,1.7-0.5c0.4-0.3,0.6-0.7,0.6-1.2c0-0.5-0.2-0.9-0.6-1.3c-0.4-0.3-1-0.6-1.9-0.9c-1.6-0.5-2.8-1-3.6-1.7
	c-0.8-0.6-1.2-1.5-1.2-2.6c0-1.1,0.5-2,1.4-2.7c0.9-0.7,2.1-1.1,3.6-1.1c1.5,0,2.7,0.4,3.6,1.2c0.9,0.8,1.4,1.8,1.4,2.9l0,0.1h-2.6
	c0-0.6-0.2-1.1-0.6-1.5c-0.4-0.4-1-0.6-1.8-0.6c-0.7,0-1.3,0.2-1.7,0.5c-0.4,0.3-0.6,0.7-0.6,1.2c0,0.5,0.2,0.8,0.6,1.1
	c0.4,0.3,1.2,0.6,2.2,0.9c1.5,0.4,2.6,1,3.4,1.6C57.6,78,58,78.9,58,80C58,81.2,57.5,82.1,56.6,82.7z M69.8,85.7l-2.4-2.4
	c-0.3,0.1-0.7,0.2-1,0.3c-0.4,0.1-0.7,0.1-1.1,0.1c-1.7,0-3-0.5-4.1-1.6s-1.6-2.5-1.6-4.1v-2.4c0-1.7,0.5-3,1.6-4.1
	c1-1.1,2.4-1.6,4-1.6c1.7,0,3,0.5,4.1,1.6c1.1,1.1,1.6,2.5,1.6,4.1V78c0,0.8-0.1,1.6-0.4,2.3s-0.6,1.3-1.1,1.8l2.2,2.2L69.8,85.7z
	 M82.1,83.5h-8.7V70H76v11.4h6V83.5z M94.4,83.5c-0.9-0.7-1.7-1.4-2.6-2.1c-1.5-1.1-3-2.1-4.7-2.8c-0.4-0.2-0.8-0.4-1.2-0.6
	c-1.6-0.7-2.9-1.7-4.3-2.7c-1.1-0.8-2-1.8-2.8-3c-0.2-0.3-0.4-0.7-0.5-1c-0.1-0.3-0.2-0.5-0.4-0.7c-0.1-0.1-0.1-0.2,0-0.3
	c0.1-0.2,0.2-0.4,0.5-0.5c0.2-0.1,0.5-0.2,0.7-0.3c0.3-0.1,0.6-0.2,1-0.3c1.2-0.5,2.4-0.8,3.6-0.9c1.7-0.2,3.3-0.3,5-0.3
	c0.1,0,0.2,0,0.3,0c0-0.2-0.1-0.3-0.2-0.4c-0.2-0.2-0.4-0.5-0.6-0.7c-0.3-0.3-0.7-0.5-1-0.7c-1.1-0.6-2-1.3-3-2.1
	c-0.7-0.5-1.5-1-2.2-1.5c-0.8-0.6-1.7-1-2.7-1.3c-1.5-0.5-3-1-4.5-1.5c-0.4-0.1-0.7-0.3-1.1-0.5c-0.4-0.2-0.7-0.5-0.9-0.8
	c-0.8-1.1-1.4-2.3-2-3.5c-1.3-2.9-2.7-5.8-4-8.6c-0.4-0.8-0.7-1.6-1-2.4c-0.4-1.3-1.1-2.4-1.7-3.5c-2.1-3.6-4.7-6.9-7.7-9.7
	c-2.7-2.6-5.7-4.7-9.1-6.4c-1.1-0.6-2.2-1-3.4-1.4c-0.8-0.3-1.7-0.4-2.5-0.5c-0.7,0-1.5-0.1-2.2-0.2c-0.4,0-0.8-0.1-1.2-0.1
	c-0.2,0-0.4,0-0.5-0.1c-0.3-0.2-0.6-0.3-0.8-0.6c-1.2-1.1-2.6-1.9-4.1-2.6c-0.9-0.4-1.8-0.8-2.7-1.1c-0.5-0.1-1-0.3-1.5-0.2
	c-0.4,0-0.8,0.2-1,0.4c-0.3,0.3-0.4,0.7-0.4,1.2c0.1,0.3,0.2,0.7,0.3,1c0.3,0.8,0.8,1.4,1.3,2.1c0.7,0.9,1.3,1.7,2,2.6
	c1.2,1.6,2.1,3.4,2.8,5.3c0.4,1.4,0.9,2.7,1.3,4.1c0.5,1.5,1.2,2.9,2.1,4.2c0.3,0.4,0.6,0.8,0.9,1.1c0.2,0.2,0.4,0.4,0.5,0.5
	c0.3,0.3,0.5,0.7,0.6,1.1c0.1,0.3,0.1,0.6,0,0.9c-0.1,0.8-0.4,1.6-0.7,2.3c-0.3,0.8-0.6,1.5-0.8,2.3c-0.4,1.2-0.5,2.4-0.6,3.7
	c0,0.7-0.1,1.5,0,2.2c0.1,2.6,0.6,5.2,1.8,7.5c0.2,0.4,0.4,0.8,0.7,1.1c0.3,0.3,0.6,0.6,1,0.7c0.2,0.1,0.2,0.1,0.5-0.1
	c0.1-0.5,0.1-0.9,0.2-1.4c0.2-1.4,0.3-2.9,0.7-4.2c0.3-1.2,0.8-2.2,1.6-3.2c0.4-0.5,0.8-1,1.1-1.5c0,0,0,0,0.1-0.1
	c0.2,0.1,0.3,0.3,0.4,0.5c0.1,0.2,0.1,0.5,0.2,0.7c0.1,0.2,0.1,0.5,0.2,0.7c0.7,1.6,1.4,3.3,2.2,4.8c1.5,2.8,3.1,5.6,5,8.2
	c0.8,1,1.6,2,2.5,2.9c0.1,0.1,0.3,0.2,0.4,0.3c0.2,0.2,0.4,0.4,0.6,0.6c0.1,0,0.1,0.1,0.2,0.2c-0.1,0-0.2,0-0.2,0
	c-0.5-0.2-0.9-0.4-1.2-0.8c-0.3-0.3-0.7-0.6-1-1c-0.4-0.4-0.9-0.9-1.4-1.2c-1.8-1.4-3.5-3-4.9-4.8c-0.5-0.7-1-1.4-1.4-2.1
	c-0.5-1-1-1.9-1.4-2.9c0-0.1-0.1-0.2-0.2-0.3c-0.1,0.1-0.1,0.3-0.2,0.4c-0.1,0.7-0.2,1.3-0.4,2c-0.1,0.6-0.2,1.3-0.3,1.9
	c-0.1,0.4-0.2,0.9-0.3,1.3c-0.6,1.7-2.4,2.2-3.7,1.6c-0.5-0.2-0.9-0.5-1.3-0.9c-0.9-0.9-1.5-1.9-2.1-3c-0.7-1.3-1.1-2.8-1.4-4.2
	c-0.3-1.4-0.4-2.8-0.4-4.2c0-2.2,0.3-4.3,1-6.4c0.2-0.6,0.3-1.3,0.5-2c0.1-0.5,0.3-1,0.5-1.5c0-0.1,0.1-0.2,0-0.3
	c-0.1-0.2-0.1-0.4-0.2-0.5c-0.1-0.1-0.2-0.2-0.3-0.3c-0.5-0.4-0.8-0.9-1.2-1.4c-1.1-1.8-2-3.7-2.7-5.6c-0.3-1-0.7-2-1-3
	c-0.1-0.4-0.3-0.9-0.4-1.3c-0.2-0.7-0.4-1.3-0.8-1.9c-0.3-0.4-0.6-0.9-0.9-1.3c-0.8-1.1-1.6-2.2-2.5-3.2c-0.6-0.7-1.1-1.5-1.4-2.3
	c-0.2-0.4-0.3-0.9-0.4-1.4c0-0.1-0.1-0.2-0.1-0.3c0-0.3,0-0.5,0-0.8c0-0.1,0.1-0.2,0.1-0.3c0.1-0.2,0.1-0.4,0.2-0.7
	c0.5-1.4,1.5-2.3,2.9-2.5c0.1,0,0.2,0,0.4-0.1c0.3,0,0.7,0,1,0c0.3,0,0.5,0.1,0.8,0.1c1.3,0.2,2.5,0.7,3.7,1.3
	c0.8,0.4,1.7,0.9,2.5,1.3c0.5,0.3,0.9,0.6,1.3,1c0.3,0.3,0.7,0.5,1,0.8c0.2,0.1,0.4,0.2,0.6,0.2c1,0.1,2.1,0.1,3.1,0.2
	c0.4,0,0.8,0.2,1.2,0.3c1.2,0.3,2.4,0.5,3.5,1c0.5,0.2,0.9,0.4,1.4,0.6c2.7,1.6,5.3,3.3,7.8,5.2c3.4,2.7,6.3,5.9,8.8,9.5
	c0.6,0.9,1.2,1.9,1.8,2.8c0.6,1,1.1,2,1.5,3.1c1.4,3.7,3.1,7.2,4.9,10.7c0.4,0.7,0.7,1.4,1,2.2c0.3,0.5,0.6,1,0.9,1.5
	c0.1,0.2,0.3,0.4,0.6,0.5c0.1,0,0.2,0.1,0.3,0.1c1.7,0.6,3.3,1.4,4.9,2.1c1.1,0.5,2,1.2,3,1.9c2.1,1.4,4.1,3,6,4.6
	c0.5,0.4,0.8,0.9,1.2,1.4c0.3,0.4,0.7,0.9,1,1.3c0.1,0.2,0.1,0.4,0.1,0.6c-0.3,0.1-0.6,0.2-0.9,0.3c-0.7,0.2-1.4,0.4-2.1,0.5
	c-0.6,0.1-1.2,0.2-1.8,0.2c-1,0.1-1.9,0.3-2.8,0.5c-0.8,0.2-1.5,0.4-2.3,0.5c-0.1,0-0.1,0-0.2,0c0.2,0.6,0.6,1.1,1.1,1.5
	c0.6,0.5,1.3,1,2,1.4c0.4,0.2,0.7,0.4,1.1,0.7c2.3,1.4,4.3,3.2,6,5.3c0.3,0.4,0.7,0.7,1,1.1c0.5,0.4,0.8,0.9,1,1.5
	c0.1,0.2,0.2,0.4,0.3,0.5C94.5,83.4,94.6,83.6,94.4,83.5z M42.5,29c0,0.4-0.1,0.9-0.2,1.3c-0.2,0.4-0.5,0.8-0.9,1
	c0-0.1-0.1-0.2-0.1-0.2c-0.3-0.5-0.5-1.1-0.8-1.6c-0.2-0.4-0.4-0.7-0.6-1c-0.4-0.4-0.8-0.8-1-1.3c0-0.1-0.1-0.1-0.2-0.2
	c0.3-0.1,0.5-0.1,0.7-0.1c0.4,0,0.7-0.1,1.1-0.1c0.1,0,0.2,0,0.3,0.1c0.2,0.2,0.5,0.3,0.7,0.5c0.3,0.2,0.6,0.5,0.7,0.9
	c0.1,0.2,0.2,0.3,0.3,0.5C42.5,28.9,42.5,29,42.5,29z"/>
<path fill="#005B85" d="M67.4,73c-0.5-0.7-1.2-1-2.2-1s-1.6,0.3-2.1,1c-0.5,0.7-0.8,1.5-0.8,2.6V78c0,1.1,0.3,1.9,0.8,2.6
	c0.5,0.7,1.2,1,2.1,1c0.9,0,1.7-0.3,2.2-1c0.5-0.7,0.8-1.5,0.8-2.6v-2.5C68.2,74.5,67.9,73.6,67.4,73z"/>
</svg>
