<?xml version="1.0" encoding="utf-8"?>
<!-- Generator: Adobe Illustrator 17.1.0, SVG Export Plug-In . SVG Version: 6.00 Build 0)  -->
<!DOCTYPE svg PUBLIC "-//W3C//DTD SVG 1.1//EN" "http://www.w3.org/Graphics/SVG/1.1/DTD/svg11.dtd">
<svg version="1.1" id="Layer_1" xmlns="http://www.w3.org/2000/svg" xmlns:xlink="http://www.w3.org/1999/xlink" x="0px" y="0px"
	 viewBox="0 0 108 108" enable-background="new 0 0 108 108" xml:space="preserve">
<g>
	
		<rect x="62.6" y="27.6" transform="matrix(0.7595 0.6505 -0.6505 0.7595 36.4255 -42.2683)" fill="#FFFFFF" width="25.5" height="1"/>
</g>
<path d="M26.7,88.2c0.4,0.1,0.7,0.1,1.1,0.1C27.4,88.3,27.1,88.3,26.7,88.2z"/>
<path d="M28.1,88.3c0.4,0,0.7,0,1.2,0C28.8,88.3,28.4,88.3,28.1,88.3z"/>
<path fill="#4CA046" d="M54,0C24.2,0,0,24.2,0,54s24.2,54,54,54s54-24.2,54-54S83.8,0,54,0z M84.3,88.2c-0.5,0.1-1,0.2-1.5,0.2
	c-17.5,0-35,0-52.5,0c0,0,0,0,0,0H27c-0.3,0-0.7-0.1-0.9-0.3c0.2,0,0.3,0.1,0.5,0.1c-0.6-0.1-1-0.5-1.1-1c0,0,0-0.1,0-0.1V19
	c0-0.6,0.5-1.2,1.3-1.3c0.1,0,0.1,0,0.2,0c0.6,0,1.1,0,1.7,0c-0.6,0-1.2,0-1.8,0c0.1,0,0.1,0,0.2,0h3.3c0.1,0,0.1,0,0.2,0
	c0.5,0,1.1,0,1.6,0c9.9,0,19.8,0.1,29.6,0c1.8,0,3.3,0.7,4.3,1.7l9.2,7.6l9.4,8.3l0.4,0.3c0.1,0.1,0.2,0.2,0.3,0.4l0,0
	c0.1,0.1,0.3,0.3,0.3,0.4c0.7,1.1,0.9,2.4,0.9,3.6c0,15.2,0,30.4,0,45.6C86.6,87.2,86,87.8,84.3,88.2z"/>
<path fill="#718B3A" d="M28.1,88.3c-0.1,0-0.2,0-0.3,0c-0.4,0-0.7-0.1-1.1-0.1c0,0-0.1,0-0.1,0c0,0-0.1,0-0.1,0
	c-0.2,0-0.3-0.1-0.5-0.1c0.3,0.2,0.6,0.3,0.9,0.3h3.3c0,0,0,0,0,0c-0.4,0-0.7,0-1.1,0C28.8,88.3,28.4,88.3,28.1,88.3z"/>
<path d="M30.3,17.7c0.1,0,0.2,0,0.3,0c-0.1,0-0.1,0-0.2,0c-0.5,0-1,0-1.5,0C29.4,17.7,29.9,17.7,30.3,17.7z"/>
<path fill="#AFD136" d="M85.4,36L85.4,36c0.1,0.1,0.2,0.3,0.3,0.4C85.6,36.3,85.5,36.1,85.4,36z"/>
<path fill="#FFFFFF" d="M27.8,88.3c0.1,0,0.2,0,0.3,0C28,88.3,27.9,88.3,27.8,88.3z"/>
<path fill="#FFFFFF" d="M26.7,88.2c-0.1,0-0.1,0-0.2,0C26.6,88.2,26.6,88.2,26.7,88.2C26.6,88.2,26.7,88.2,26.7,88.2z"/>
<g>
	<path fill="#FFFFFF" d="M68.8,25c0.4,2.2,0.4,4.4,0.4,6.6c0,0.5,0.1,0.8,0.8,0.7c2.3-0.1,4.6,0,6.9,0.3c2.7,0.3,5.4,0.7,7.6,2.2
		l0.2,0.2l-9.5-8.4l-9.4-7.7c0.1,0.1,0.1,0.1,0.2,0.2C67.7,20.8,68.4,22.9,68.8,25z"/>
	<path fill="#E6E7E8" d="M86.6,39.8c0-1.3-0.1-2.6-0.9-3.7c-0.1-0.2-0.2-0.3-0.3-0.4c-0.1-0.1-0.2-0.2-0.3-0.4L84.6,35l-0.2-0.2
		c-2.2-1.5-4.9-1.9-7.6-2.2c-2.3-0.3-4.6-0.4-6.9-0.3c-0.7,0-0.8-0.2-0.8-0.7c0-2.2,0-4.4-0.4-6.6c-0.4-2.2-1.1-4.3-2.8-6
		c-0.1-0.1-0.1-0.1-0.2-0.2c-1-1.1-2.5-1.8-4.3-1.8c-10,0.1-20,0-30.1,0c-0.6,0-1.1,0-1.7,0c0.1,0,0.1,0,0.2,0c-0.1,0-0.2,0-0.4,0
		c-0.5,0-0.9,0-1.4,0c0.5,0,1,0,1.5,0c-0.1,0-0.1,0-0.2,0h-3.3c-0.1,0-0.1,0-0.2,0c0.6,0,1.2,0,1.8,0c-0.6,0-1.1,0-1.7,0
		c-0.1,0-0.1,0-0.2,0c-0.7,0.1-1.3,0.7-1.3,1.3v69c0,0,0,0.1,0,0.1c0.1,0.5,0.5,1,1.2,1.1c0.8,0.1,1.7,0.1,2.6,0.1
		c0.4,0,0.7,0,1.1,0c17.7,0,35.5,0,53.2,0c0.5,0,1-0.1,1.5-0.2c1.8-0.4,2.3-1,2.3-2.5C86.6,70.7,86.6,55.3,86.6,39.8z"/>
</g>
<g>
	<g id="GFaCOc.tif">
		<g>
			<g>
				<path d="M67.7,66.8c0,2.1,0,4.3,0,6.4c0,1.1-0.5,1.8-1.4,2.4c-3.7,2.1-7.4,4.3-11.1,6.4c-1,0.6-1.9,0.6-2.8,0
					c-1.1-0.7-2.3-1.4-3.5-2.1c-0.1,0-0.1-0.1-0.2-0.1c-0.1-0.1-0.3-0.1-0.3-0.3c0-0.2,0.2-0.2,0.4-0.2c0.5-0.2,1-0.4,1.4-0.6
					c0.2-0.1,0.4-0.1,0.6,0c0.9,0.5,1.8,1,2.7,1.6c0.2,0.1,0.4,0.1,0.7,0c3.7-2.1,7.4-4.3,11.1-6.4c0.2-0.1,0.3-0.3,0.3-0.6
					c0-4.3,0-8.6,0-12.9c0-0.3-0.1-0.4-0.3-0.6c-3.7-2.1-7.5-4.3-11.2-6.5c-0.2-0.1-0.4-0.1-0.6,0c-3.7,2.2-7.5,4.3-11.2,6.5
					c-0.2,0.1-0.3,0.3-0.3,0.5c0,4.3,0,8.6,0,12.9c0,0.2,0.1,0.4,0.3,0.5c1,0.6,2,1.1,3,1.7c0.3,0.2,0.7,0.3,1,0.3
					c1,0.1,1.8-0.5,1.8-1.5c0-0.9,0-1.7,0-2.6c0-3.4,0-6.8,0-10.2c0-0.5,0.1-0.6,0.6-0.6c0.4,0,0.7,0,1.1,0c0.4,0,0.5,0.1,0.5,0.5
					c0,0.9,0,1.8,0,2.7c0,3.4,0,6.8,0,10.2c0,0.4,0,0.8-0.1,1.2c-0.4,1.5-1.5,2.3-3.1,2.4c-1.1,0-2-0.3-2.9-0.8
					c-0.9-0.5-1.9-1.1-2.8-1.6c-0.8-0.5-1.3-1.2-1.3-2.2c0-4.3,0-8.7,0-13c0-1,0.4-1.7,1.3-2.2c3.8-2.2,7.5-4.3,11.3-6.5
					c0.9-0.5,1.7-0.5,2.6,0c3.8,2.2,7.5,4.3,11.3,6.5c0.8,0.5,1.3,1.2,1.3,2.2C67.7,62.4,67.7,64.6,67.7,66.8z"/>
				<path d="M57.2,60.6c0.8,0,1.8,0.1,2.8,0.4c1.6,0.6,2.6,1.8,2.7,3.5c0,0.3-0.1,0.4-0.4,0.4c-0.5,0-0.9,0-1.4,0
					c-0.2,0-0.3-0.1-0.4-0.3c0-0.1,0-0.1-0.1-0.2c-0.2-0.9-0.8-1.5-1.8-1.7c-1.1-0.2-2.2-0.2-3.3,0c-0.3,0.1-0.6,0.2-0.8,0.4
					c-0.4,0.3-0.6,1-0.4,1.5c0.1,0.3,0.3,0.4,0.6,0.5c0.5,0.2,1.1,0.3,1.7,0.4c1.3,0.2,2.6,0.3,3.9,0.6c0.5,0.1,1.1,0.3,1.6,0.6
					c0.8,0.5,1.2,1.2,1.3,2.1c0.1,1.9-0.7,3.2-2.5,3.8c-1.3,0.5-2.7,0.6-4.1,0.5c-0.9-0.1-1.9-0.2-2.8-0.6c-1.6-0.6-2.4-1.9-2.5-3.5
					c0-0.4,0.1-0.5,0.4-0.5c0.4,0,0.9,0,1.3,0c0.2,0,0.4,0.1,0.4,0.3c0.2,1.4,1,2,2.3,2.1c1.2,0.1,2.4,0.2,3.6-0.1
					c0.6-0.2,1.2-0.5,1.4-1.2c0.2-0.7,0-1.2-0.7-1.5c-0.8-0.3-1.8-0.4-2.6-0.5c-1.1-0.1-2.3-0.2-3.4-0.6c-0.2-0.1-0.4-0.1-0.6-0.2
					c-1.3-0.6-1.8-1.6-1.7-3c0.1-1.3,0.7-2.2,1.9-2.8C54.7,60.7,55.9,60.6,57.2,60.6z"/>
			</g>
		</g>
	</g>
	<g>
		<g>
			<g>
				<path d="M52.4,41.5c0,0.8,0,1.5,0,2.3c0,0.3-0.1,0.6-0.4,0.8c-1.4,0.8-2.7,1.6-4.1,2.3c-0.2,0.1-0.5,0.1-0.7,0
					c-1.4-0.8-2.7-1.6-4.1-2.3c-0.3-0.2-0.4-0.5-0.4-0.8c0-0.5,0-1,0-1.5c0-1.1,0-2.2,0-3.2c0-0.2,0.1-0.4,0.3-0.5
					c0.8-0.4,1.5-0.9,2.3-1.3c0.6-0.3,1.2-0.7,1.7-1c0.3-0.2,0.7-0.2,1,0c1.3,0.8,2.6,1.5,3.9,2.2c0.3,0.2,0.5,0.4,0.5,0.8
					C52.3,40,52.4,40.7,52.4,41.5C52.4,41.5,52.4,41.5,52.4,41.5z"/>
				<path d="M39.2,42.3c0,1.1,0,2.2,0,3.3c0,0.3-0.2,0.5-0.5,0.3c-0.8-0.4-1.6-0.9-2.4-1.4c-0.2-0.1-0.3-0.3-0.3-0.6
					c0-0.9,0-1.8,0-2.8c0-0.4-0.1-0.7-0.5-0.9c-0.3-0.2-0.6-0.4-1-0.5c-0.1,0-0.2,0-0.4,0c-0.4,0.2-0.8,0.4-1.2,0.7
					c-0.2,0.1-0.3,0.3-0.3,0.6c0,0.9,0,1.9,0,2.8c0,0.4-0.2,0.6-0.5,0.8c-0.7,0.4-1.5,0.9-2.2,1.3c-0.4,0.2-0.5,0.1-0.5-0.3
					c0-2.1,0-4.3,0-6.4c0-0.3,0.1-0.6,0.4-0.7c1.3-0.7,2.6-1.5,3.9-2.2c0.4-0.2,0.8-0.2,1.2,0c1.3,0.8,2.6,1.5,3.9,2.2
					c0.3,0.1,0.4,0.4,0.4,0.7C39.2,40.2,39.2,41.2,39.2,42.3C39.2,42.3,39.2,42.3,39.2,42.3z"/>
				<path d="M68.8,41.5c0-0.8,0-1.6,0-2.4c0-0.3,0.1-0.5,0.4-0.6c1.4-0.8,2.7-1.6,4.1-2.4c0.3-0.2,0.6-0.2,0.8,0
					c1.4,0.8,2.7,1.6,4.1,2.4c0.2,0.1,0.4,0.3,0.4,0.5c0,0.4,0,0.8,0,1.2c0,0.4-0.3,0.5-0.5,0.7c-0.7,0.4-1.4,0.8-2.1,1.2
					c-0.1,0.1-0.2,0.2-0.4,0.1c-0.2-0.1-0.1-0.3-0.1-0.4c0-0.3,0-0.6,0-0.9c0-0.2-0.1-0.3-0.2-0.4c-0.4-0.2-0.8-0.5-1.3-0.7
					c-0.1,0-0.2-0.1-0.3,0c-0.4,0.2-0.9,0.5-1.3,0.7C72,40.6,72,40.7,72,40.8c0,0.5,0,0.9,0,1.4c0,0.2,0.1,0.3,0.2,0.4
					c1.3,0.7,2.6,1.5,3.9,2.2c0.1,0.1,0.2,0.1,0.3,0.2c0.2,0.2,0.2,0.3,0,0.5c-0.9,0.5-1.7,1-2.6,1.4c-0.2,0.1-0.3,0.1-0.5-0.1
					c-1.3-0.7-2.5-1.5-3.8-2.1c-0.6-0.3-0.8-0.7-0.8-1.4C68.8,42.8,68.8,42.2,68.8,41.5C68.8,41.5,68.8,41.5,68.8,41.5z"/>
				<path d="M74.6,41.5c0,0.2,0.1,0.4-0.1,0.6c-0.2,0.2-0.5,0.4-0.8,0.4c-0.3,0-0.6-0.2-0.8-0.4c-0.2-0.2-0.1-0.5-0.1-0.7
					c0-0.1-0.1-0.3,0.1-0.4c0.3-0.2,0.5-0.4,0.8-0.4c0.3,0,0.6,0.3,0.8,0.4C74.6,41.1,74.5,41.3,74.6,41.5z"/>
			</g>
		</g>
		<path d="M65.5,37.8c0-2,0-4,0-6.1c0-0.3-0.1-0.6-0.4-0.8c-0.8-0.4-1.5-0.9-2.3-1.3c-0.4-0.2-0.5-0.1-0.5,0.3c0,1,0,1.9,0,2.9
			c0,1.2,0,2.3,0,3.5c0,0.3-0.2,0.4-0.4,0.3c-0.1-0.1-0.2-0.1-0.3-0.2c-0.9-0.6-0.8-0.5-1.7,0c-1.2,0.7-2.4,1.4-3.6,2.1
			c-0.3,0.1-0.4,0.3-0.4,0.7c0,1.6,0,3.2,0,4.8c0,0.3,0.1,0.5,0.4,0.6c1.4,0.8,2.7,1.6,4.1,2.4c0.2,0.1,0.5,0.2,0.7,0
			c1.4-0.8,2.8-1.6,4.2-2.4c0.3-0.2,0.4-0.4,0.4-0.7C65.5,41.9,65.5,39.9,65.5,37.8z M62.2,42.6l-1.6,0.9L59,42.6v-1.8l1.6-0.9
			l1.6,0.9V42.6z"/>
	</g>
</g>
</svg>
