<?xml version="1.0" encoding="utf-8"?>
<!-- Generator: Adobe Illustrator 17.1.0, SVG Export Plug-In . SVG Version: 6.00 Build 0)  -->
<!DOCTYPE svg PUBLIC "-//W3C//DTD SVG 1.1//EN" "http://www.w3.org/Graphics/SVG/1.1/DTD/svg11.dtd">
<svg version="1.1" id="Layer_1" xmlns="http://www.w3.org/2000/svg" xmlns:xlink="http://www.w3.org/1999/xlink" x="0px" y="0px"
	 viewBox="0 0 109 109" enable-background="new 0 0 109 109" xml:space="preserve">
<path d="M27.2,88.7c0.4,0.1,0.7,0.1,1.1,0.1C27.9,88.8,27.6,88.8,27.2,88.7z"/>
<path d="M28.6,88.8c0.4,0,0.7,0,1.2,0C29.3,88.8,28.9,88.8,28.6,88.8z"/>
<path fill="#8892BF" d="M54.5,0.5c-29.8,0-54,24.2-54,54s24.2,54,54,54s54-24.2,54-54S84.3,0.5,54.5,0.5z M84.8,88.7
	c-0.5,0.1-1,0.2-1.5,0.2c-17.5,0-35,0-52.5,0c0,0,0,0,0,0h-3.3c-0.3,0-0.7-0.1-0.9-0.3c0.2,0,0.3,0.1,0.5,0.1c-0.6-0.1-1-0.5-1.1-1
	c0,0,0-0.1,0-0.1v-68c0-0.6,0.5-1.2,1.3-1.3c0.1,0,0.1,0,0.2,0c0.6,0,1.1,0,1.7,0c-0.6,0-1.2,0-1.8,0c0.1,0,0.1,0,0.2,0h3.3
	c0.1,0,0.1,0,0.2,0c0.5,0,1.1,0,1.6,0c9.9,0,19.8,0.1,29.6,0c1.8,0,3.3,0.7,4.3,1.7l9.2,7.6l9.4,8.3l0.4,0.3
	c0.1,0.1,0.2,0.2,0.3,0.4l0,0c0.1,0.1,0.3,0.3,0.3,0.4c0.7,1.1,0.9,2.4,0.9,3.6c0,15.2,0,30.4,0,45.6C87.1,87.7,86.5,88.3,84.8,88.7
	z"/>
<path fill="#718B3A" d="M28.6,88.8c-0.1,0-0.2,0-0.3,0c-0.4,0-0.7-0.1-1.1-0.1c0,0-0.1,0-0.1,0c0,0-0.1,0-0.1,0
	c-0.2,0-0.3-0.1-0.5-0.1c0.3,0.2,0.6,0.3,0.9,0.3h3.3c0,0,0,0,0,0c-0.4,0-0.7,0-1.1,0C29.3,88.8,28.9,88.8,28.6,88.8z"/>
<path d="M30.8,18.2c0.1,0,0.2,0,0.3,0c-0.1,0-0.1,0-0.2,0c-0.5,0-1,0-1.5,0C29.9,18.2,30.4,18.2,30.8,18.2z"/>
<path fill="#AFD136" d="M85.9,36.5L85.9,36.5c0.1,0.1,0.2,0.3,0.3,0.4C86.1,36.8,86,36.6,85.9,36.5z"/>
<path fill="#FFFFFF" d="M28.3,88.8c0.1,0,0.2,0,0.3,0C28.5,88.8,28.4,88.8,28.3,88.8z"/>
<path fill="#FFFFFF" d="M27.2,88.7c-0.1,0-0.1,0-0.2,0C27.1,88.7,27.1,88.7,27.2,88.7C27.1,88.7,27.2,88.7,27.2,88.7z"/>
<g>
	<path fill="#FFFFFF" d="M69.3,25.5c0.4,2.2,0.4,4.4,0.4,6.6c0,0.5,0.1,0.8,0.8,0.7c2.3-0.1,4.6,0,6.9,0.3c2.7,0.3,5.4,0.7,7.6,2.2
		l0.2,0.2l-9.5-8.4l-9.4-7.7c0.1,0.1,0.1,0.1,0.2,0.2C68.2,21.3,68.9,23.4,69.3,25.5z"/>
	<path fill="#E6E7E8" d="M87.1,40.3c0-1.3-0.1-2.6-0.9-3.7c-0.1-0.2-0.2-0.3-0.3-0.4c-0.1-0.1-0.2-0.2-0.3-0.4l-0.4-0.3l-0.2-0.2
		c-2.2-1.5-4.9-1.9-7.6-2.2c-2.3-0.3-4.6-0.4-6.9-0.3c-0.7,0-0.8-0.2-0.8-0.7c0-2.2,0-4.4-0.4-6.6c-0.4-2.2-1.1-4.3-2.8-6
		c-0.1-0.1-0.1-0.1-0.2-0.2c-1-1.1-2.5-1.8-4.3-1.8c-10,0.1-20,0-30.1,0c-0.6,0-1.1,0-1.7,0c0.1,0,0.1,0,0.2,0c-0.1,0-0.2,0-0.4,0
		c-0.5,0-0.9,0-1.4,0c0.5,0,1,0,1.5,0c-0.1,0-0.1,0-0.2,0h-3.3c-0.1,0-0.1,0-0.2,0c0.6,0,1.2,0,1.8,0c-0.6,0-1.1,0-1.7,0
		c-0.1,0-0.1,0-0.2,0c-0.7,0.1-1.3,0.7-1.3,1.3v69c0,0,0,0.1,0,0.1c0.1,0.5,0.5,1,1.2,1.1c0.8,0.1,1.7,0.1,2.6,0.1
		c0.4,0,0.7,0,1.1,0c17.7,0,35.5,0,53.2,0c0.5,0,1-0.1,1.5-0.2c1.8-0.4,2.3-1,2.3-2.5C87.1,71.2,87.1,55.8,87.1,40.3z"/>
</g>
<polygon points="28.9,58.9 32.9,60.7 32.9,59.8 30.2,58.6 29.8,58.6 29.8,58.5 30.2,58.4 32.9,57.3 32.9,56.3 28.9,58.2 "/>
<path d="M36,54c-0.6,0-1.1,0.2-1.4,0.5c-0.4,0.3-0.6,0.7-0.6,1.3l0,0h0.9c0-0.3,0.1-0.5,0.3-0.7s0.5-0.2,0.8-0.2
	c0.3,0,0.6,0.1,0.8,0.3c0.2,0.2,0.3,0.5,0.3,0.8c0,0.3-0.1,0.5-0.2,0.7s-0.4,0.5-0.7,0.9c-0.3,0.3-0.5,0.5-0.6,0.7s-0.1,0.5-0.1,1h1
	c0-0.3,0-0.5,0.1-0.7c0-0.1,0.1-0.3,0.3-0.5c0.4-0.4,0.7-0.7,0.9-1.1c0.2-0.3,0.3-0.7,0.3-1.2c0-0.6-0.2-1-0.5-1.4S36.6,54,36,54z"
	/>
<rect x="35.4" y="60.2" width="1" height="1"/>
<rect x="74.9" y="60.2" width="1" height="1"/>
<path d="M75.5,54c-0.6,0-1.1,0.2-1.4,0.5c-0.4,0.3-0.6,0.7-0.6,1.3l0,0h0.9c0-0.3,0.1-0.5,0.3-0.7s0.5-0.2,0.8-0.2
	c0.3,0,0.6,0.1,0.8,0.3c0.2,0.2,0.3,0.5,0.3,0.8c0,0.3-0.1,0.5-0.2,0.7s-0.4,0.5-0.7,0.9c-0.3,0.3-0.5,0.5-0.6,0.7s-0.1,0.5-0.1,1h1
	c0-0.3,0-0.5,0.1-0.7c0-0.1,0.1-0.3,0.3-0.5c0.4-0.4,0.7-0.7,0.9-1.1c0.2-0.3,0.3-0.7,0.3-1.2c0-0.6-0.2-1-0.5-1.4S76.2,54,75.5,54z
	"/>
<polygon points="78.6,57.3 81.6,58.4 82,58.5 82,58.5 81.6,58.6 78.6,59.8 78.6,60.7 82.8,58.9 82.8,58.2 78.6,56.3 "/>
<path d="M46.7,51.4c-0.5,0-0.9,0.1-1.3,0.3s-0.8,0.5-1.2,0.8l0.1-0.9h-2.6l-2.9,14.6h2.8l1-4.9c0.3,0.4,0.6,0.6,1,0.8
	c0.4,0.2,0.8,0.3,1.3,0.3c1.2,0,2.2-0.4,3-1.3s1.3-2.1,1.7-3.7l0-0.2c0.3-1.6,0.2-3-0.3-4.1S47.8,51.4,46.7,51.4z M43.9,54.8
	c0.2-0.4,0.5-0.6,0.8-0.9s0.6-0.3,1-0.3c0.6,0,1,0.3,1.2,1s0.1,1.5-0.1,2.6l0,0.2c-0.2,0.9-0.5,1.6-0.8,2.1s-0.9,0.7-1.4,0.7
	c-0.4,0-0.7-0.1-1-0.2s-0.4-0.3-0.5-0.5"/>
<path d="M59.8,52.5c-0.5-0.7-1.2-1.1-2.1-1.1c-0.5,0-1,0.1-1.5,0.4c-0.5,0.2-0.9,0.6-1.3,1l1.2-5.8h-2.8l-3,15.2H53l1.5-7.8
	c0.2-0.3,0.5-0.5,0.8-0.6s0.6-0.2,0.9-0.2c0.5,0,0.9,0.2,1.1,0.5c0.2,0.3,0.2,0.9,0,1.8L56,62.2h2.8l1.2-6.3
	C60.4,54.4,60.3,53.3,59.8,52.5z"/>
<path d="M67.9,51.4c-0.5,0-0.9,0.1-1.3,0.3s-0.8,0.5-1.2,0.8l0.1-0.9H63L60,66.2h2.8l1-4.9c0.3,0.4,0.6,0.6,1,0.8
	c0.4,0.2,0.8,0.3,1.3,0.3c1.2,0,2.2-0.4,3-1.3s1.3-2.1,1.7-3.7l0-0.2c0.3-1.6,0.2-3-0.3-4.1S69.1,51.4,67.9,51.4z M68,57.2l0,0.2
	c-0.2,0.9-0.5,1.6-0.8,2.1s-0.9,0.7-1.4,0.7c-0.4,0-0.7-0.1-1-0.2s-0.4-0.3-0.5-0.5l0.9-4.7c0.2-0.4,0.5-0.6,0.8-0.9s0.6-0.3,1-0.3
	c0.6,0,1,0.3,1.2,1S68.2,56.1,68,57.2z"/>
</svg>
